<?xml version="1.0" encoding="UTF-8"?>
<svg version="1.1" xmlns="http://www.w3.org/2000/svg" width="500" height="500">
<path d="M0 0 C2.77678379 -0.30239202 5.33156083 -0.4093706 8.11132812 -0.38818359 C9.37049797 -0.39606903 9.37049797 -0.39606903 10.65510559 -0.40411377 C13.44734017 -0.41737628 16.23900894 -0.40854116 19.03125 -0.3984375 C20.98067331 -0.40045947 22.93009588 -0.40337193 24.8795166 -0.40713501 C28.98208763 -0.41156927 33.08446335 -0.40510315 37.18701172 -0.39111328 C42.39576458 -0.37420142 47.60404752 -0.38373965 52.81278229 -0.40183067 C56.85051861 -0.41279451 60.8881481 -0.40916215 64.92588806 -0.4014473 C66.84244341 -0.39947036 68.75900904 -0.40181452 70.67555237 -0.40888596 C104.91847492 -0.50731772 136.08124417 8.79489969 161.15625 33.06640625 C185.01469126 57.12690071 195.26211768 90.70197627 195.2487793 123.91455078 C194.8674362 158.5865945 181.35188451 189.60594212 156.9296875 214.07421875 C142.34192512 227.77379633 123.43342045 236.81672384 104 241 C103.01257813 241.21269531 102.02515625 241.42539062 101.0078125 241.64453125 C89.66480349 243.87778656 78.32866171 244.18653351 66.80859375 244.18530273 C64.47638549 244.18752248 62.14462706 244.20584121 59.8125 244.22460938 C58.32291827 244.22753824 56.83333432 244.22952642 55.34375 244.23046875 C54.65003296 244.23765427 53.95631592 244.24483978 53.24157715 244.25224304 C49.59286818 244.23483812 48.1261555 244.08410366 45 242 C44.625 239.5 44.625 239.5 45 237 C48.83578772 234.44280819 51.99793836 234.70321265 56.4453125 234.69140625 C58.18099213 234.66619034 59.91666914 234.64079337 61.65234375 234.61523438 C64.36571151 234.58684374 67.07903161 234.56282396 69.79248047 234.54370117 C84.95081448 234.41619069 99.69296825 233.36724837 114.125 228.3125 C114.86234375 228.05903809 115.5996875 227.80557617 116.359375 227.54443359 C128.20156347 223.30454352 138.51894256 217.30224035 148 209 C148.69480469 208.43667969 149.38960937 207.87335938 150.10546875 207.29296875 C170.59684564 190.36875612 182.32769084 162.02127301 185 136 C186.71338836 99.70814189 179.04457838 68.59146574 155.08203125 40.7734375 C142.61356113 27.42765499 125.76861684 18.69046212 108.4375 13.625 C107.21728149 13.26680176 107.21728149 13.26680176 105.97241211 12.90136719 C92.44567796 9.21528879 78.83148312 8.68569905 64.91015625 8.5859375 C63.22764698 8.5671718 61.54514659 8.54759465 59.86265564 8.5272522 C55.48826394 8.47649433 51.1138419 8.4365718 46.73931885 8.39910889 C42.25387421 8.35871053 37.76854952 8.30778403 33.28320312 8.2578125 C24.52221816 8.16172285 15.7611725 8.07710973 7 8 C7.00276538 9.19805425 7.00553076 10.39610849 7.00837994 11.63046741 C7.07331437 40.05205065 7.12280193 68.47363196 7.15319599 96.89527299 C7.15694823 100.39136376 7.16083119 103.88745438 7.16479492 107.38354492 C7.16558185 108.07957123 7.16636878 108.77559754 7.16717956 109.49271556 C7.18024341 120.77156857 7.20390261 132.05037583 7.23145839 143.32920168 C7.25948541 154.89715275 7.27594588 166.4650716 7.28226548 178.03305596 C7.28618505 184.53280292 7.29543142 191.03244604 7.31719017 197.53215981 C7.33748727 203.6445256 7.34384755 209.75674434 7.33932304 215.86914062 C7.34015129 218.11740606 7.34615705 220.3656762 7.35761642 222.61391258 C7.3724544 225.67401006 7.3689854 228.733546 7.36076355 231.7936554 C7.36950207 232.69150782 7.3782406 233.58936025 7.38724393 234.51442033 C7.38127078 235.33202465 7.37529764 236.14962896 7.36914349 236.99200916 C7.37028265 237.6986687 7.37142181 238.40532823 7.37259549 239.13340169 C6.88223717 241.58995856 5.97987744 242.50659982 4 244 C1.375 243.8125 1.375 243.8125 -1 243 C-2.72797537 239.54404926 -2.14012847 235.54817618 -2.13371277 231.74427795 C-2.13597833 230.77280034 -2.13824388 229.80132273 -2.14057809 228.8004064 C-2.1469402 225.52455919 -2.14608732 222.24875312 -2.14526367 218.97290039 C-2.14825377 216.63267462 -2.15165595 214.29244935 -2.15544128 211.95222473 C-2.16430031 205.58044148 -2.16662018 199.20867164 -2.16725707 192.83688283 C-2.16808528 188.19444226 -2.170982 183.5520047 -2.17409355 178.90956519 C-2.18240281 166.43230465 -2.18613525 153.95505125 -2.18542381 141.47778804 C-2.18538386 140.76880207 -2.1853439 140.0598161 -2.18530273 139.3293457 C-2.18526185 138.61949732 -2.18522097 137.90964894 -2.18517885 137.17829 C-2.18477226 125.6700127 -2.19434435 114.1617681 -2.2084411 102.65350027 C-2.22279074 90.84592055 -2.22971207 79.0383568 -2.22884732 67.23076814 C-2.22851487 60.59806282 -2.23147608 53.96538765 -2.24202538 47.33268929 C-2.25167163 41.09719609 -2.25180951 34.86177551 -2.24450874 28.62627983 C-2.24345859 26.33286814 -2.24585113 24.03945201 -2.2518692 21.74604797 C-2.25953137 18.6248471 -2.25498284 15.50390067 -2.24723816 12.38270569 C-2.2549535 11.00879129 -2.2549535 11.00879129 -2.26282471 9.60712105 C-2.25822592 8.77333316 -2.25362712 7.93954526 -2.24888897 7.08049107 C-2.24910634 6.35972686 -2.24932371 5.63896266 -2.24954766 4.89635712 C-2 3 -2 3 0 0 Z " fill="#8855F3" transform="translate(301,131)"/>
<path d="M0 0 C3.21520578 1.22058738 4.10904059 2.49630997 6.03125 5.3359375 C7.06185547 6.83060547 7.06185547 6.83060547 8.11328125 8.35546875 C8.9195052 9.55713446 9.72547457 10.75897099 10.53125 11.9609375 C12.04194268 14.18059334 13.55705626 16.39719486 15.07226562 18.61376953 C16.18335666 20.23987697 17.29269185 21.86718534 18.40039062 23.49560547 C22.18865095 29.0510697 26.07173302 34.52648248 30.03125 39.9609375 C35.00282629 46.78901683 39.82011161 53.7072807 44.57055664 60.69067383 C48.66367632 66.70458711 52.80041991 72.68640192 56.96875 78.6484375 C57.53585693 79.4616748 58.10296387 80.27491211 58.68725586 81.11279297 C62.20581904 86.13723257 65.81838676 91.07832542 69.53125 95.9609375 C76.23168091 86.76370092 82.87778416 77.5388943 89.29638672 68.14233398 C97.67422282 55.88241619 106.24846654 43.75701075 114.8293457 31.63867188 C117.82981501 27.393789 120.80459171 23.13187397 123.765625 18.859375 C124.49281738 17.81048096 125.22000977 16.76158691 125.96923828 15.6809082 C127.40696623 13.60520654 128.84289291 11.52825587 130.27685547 9.44995117 C131.2574292 8.034198 131.2574292 8.034198 132.2578125 6.58984375 C132.84127441 5.74494385 133.42473633 4.90004395 134.02587891 4.02954102 C135.53125 1.9609375 135.53125 1.9609375 137.53125 -0.0390625 C142.08680556 0.51649306 142.08680556 0.51649306 143.53125 1.9609375 C143.627958 3.94788601 143.65312052 5.93832763 143.65150452 7.92762756 C143.65356651 9.87335915 143.65356651 9.87335915 143.65567017 11.85839844 C143.65213055 13.3093264 143.64849573 14.76025413 143.64477539 16.21118164 C143.64449353 17.72855121 143.64465123 19.24592092 143.6452179 20.76329041 C143.64550591 24.89534266 143.63960858 29.02736613 143.63264394 33.15941167 C143.62641102 37.47292642 143.62580665 41.78644177 143.62461853 46.09996033 C143.62150503 54.27393867 143.61329139 62.44790371 143.60326904 70.62187618 C143.59210848 79.92522719 143.5865976 89.22857882 143.58157361 98.53193486 C143.57110879 117.67494329 143.55350899 136.81793933 143.53125 155.9609375 C141.21875 157.0859375 141.21875 157.0859375 138.53125 157.9609375 C137.54125 157.3009375 136.55125 156.6409375 135.53125 155.9609375 C135.14648914 153.59087944 135.14648914 153.59087944 135.13252258 150.55734253 C135.11998444 149.41026825 135.10744629 148.26319397 135.0945282 147.08135986 C135.09596329 145.81684998 135.09739838 144.55234009 135.09887695 143.24951172 C135.08986437 141.90932304 135.0795384 140.56914264 135.06799316 139.22897339 C135.04033737 135.5845584 135.03112713 131.94029942 135.02513909 128.29579306 C135.0157776 124.48937856 134.98957614 120.68308165 134.96513367 116.8767395 C134.92140346 109.66613839 134.89289667 102.45556002 134.86981028 95.24486649 C134.84279344 87.03692825 134.79887987 78.82910792 134.75352156 70.62125373 C134.66058196 53.73454227 134.58894401 36.84780538 134.53125 19.9609375 C131.95978089 23.65729591 129.38833562 27.35367092 126.81689453 31.05004883 C125.72964836 32.61290997 125.72964836 32.61290997 124.62043762 34.20734406 C121.06649011 39.31607243 117.51281136 44.42498592 113.9609375 49.53515625 C105.50884014 61.69429389 97.02979153 73.83422656 88.53125 85.9609375 C85.94747665 89.64812946 83.36423717 93.33569477 80.78125 97.0234375 C80.18425293 97.87510498 79.58725586 98.72677246 78.97216797 99.60424805 C78.41932129 100.39355713 77.86647461 101.18286621 77.296875 101.99609375 C76.80993164 102.690979 76.32298828 103.38586426 75.82128906 104.10180664 C74.70615834 105.70886956 73.61627644 107.33339783 72.53125 108.9609375 C69.3828125 109.79296875 69.3828125 109.79296875 65.53125 108.9609375 C62.45914261 105.88641113 60.23957826 102.29924082 57.90625 98.6484375 C57.21184814 97.60550537 56.51744629 96.56257324 55.80200195 95.48803711 C54.3774817 93.34742694 52.96219621 91.20064289 51.55615234 89.04785156 C48.67759203 84.65955681 45.69819331 80.34351753 42.71875 76.0234375 C41.65534577 74.46806575 40.59282767 72.91208774 39.53125 71.35546875 C36.76587928 67.30353046 33.99590421 63.25480934 31.21875 59.2109375 C30.78957275 58.58582275 30.36039551 57.96070801 29.91821289 57.31665039 C27.11659175 53.244003 24.29512263 49.18559917 21.46484375 45.1328125 C20.75303955 44.1128418 20.04123535 43.09287109 19.30786133 42.04199219 C17.90713694 40.0361892 16.50471706 38.03156882 15.1003418 36.02832031 C14.45105713 35.09858398 13.80177246 34.16884766 13.1328125 33.2109375 C12.55869629 32.39109375 11.98458008 31.57125 11.39306641 30.7265625 C9.85202939 28.43743749 8.3733635 26.12980546 6.91488647 23.78808594 C6.46762396 23.07054138 6.02036144 22.35299683 5.55954552 21.6137085 C5.05053924 20.79558685 5.05053924 20.79558685 4.53125 19.9609375 C4.52886165 20.66000151 4.52647329 21.35906551 4.52401257 22.07931328 C4.46493606 39.07094791 4.38943353 56.06242944 4.29553509 73.05390739 C4.2505251 81.27078852 4.2111226 89.4876258 4.18481445 97.70458984 C4.16187633 104.86456865 4.12852564 112.02440929 4.08254844 119.18427861 C4.05855936 122.97715073 4.03986802 126.76988555 4.03363609 130.56283188 C4.0276107 134.13009034 4.00770444 137.69699723 3.97697449 141.26412582 C3.96393474 143.20316231 3.96577115 145.14228078 3.9679718 147.08135986 C3.95543365 148.22843414 3.94289551 149.37550842 3.92997742 150.55734253 C3.92536845 151.55840971 3.92075949 152.55947689 3.91601086 153.59087944 C3.72555423 154.76405818 3.72555423 154.76405818 3.53125 155.9609375 C0.53125 157.9609375 0.53125 157.9609375 -2.09375 157.7109375 C-3.269375 157.3396875 -3.269375 157.3396875 -4.46875 156.9609375 C-5.83868124 154.22107502 -5.60100781 152.03821057 -5.60919189 148.97010803 C-5.61490204 147.69274277 -5.62061218 146.4153775 -5.62649536 145.0993042 C-5.62774077 143.67565928 -5.62886586 142.25201424 -5.62988281 140.82836914 C-5.63450992 139.33542253 -5.63953443 137.84247711 -5.64492798 136.34953308 C-5.65806284 132.28759661 -5.66449884 128.22567667 -5.66893864 124.16372228 C-5.67186711 121.62792375 -5.67597145 119.09212978 -5.68044281 116.55633354 C-5.6941195 108.62791911 -5.70378578 100.69951503 -5.7076447 92.77108961 C-5.71212853 83.60832262 -5.7296907 74.44570457 -5.7586453 65.28298289 C-5.78023253 58.20694262 -5.79034737 51.13094436 -5.79168582 44.0548715 C-5.79273582 39.82544863 -5.79868489 35.59616573 -5.81650543 31.36677742 C-5.83293553 27.39000794 -5.83516648 23.41348443 -5.82636642 19.43669319 C-5.82559337 17.97535546 -5.82997399 16.51400478 -5.83982468 15.05270004 C-5.85246311 13.06142331 -5.84490536 11.0700486 -5.83624268 9.07875061 C-5.83770924 7.96321336 -5.8391758 6.84767611 -5.8406868 5.69833469 C-5.46875 2.9609375 -5.46875 2.9609375 -4.10007858 1.07613277 C-2.46875 -0.0390625 -2.46875 -0.0390625 0 0 Z " fill="#8954F5" transform="translate(55.46875,217.0390625)"/>
<path d="M0 0 C1.20400955 -0.0099852 1.20400955 -0.0099852 2.43234253 -0.02017212 C4.14220897 -0.03032025 5.85211519 -0.03498847 7.56201172 -0.03466797 C10.12148513 -0.03896479 12.67912235 -0.07504037 15.23828125 -0.11328125 C34.00857764 -0.24390544 52.11245505 3.86834945 66.90625 16.21484375 C82.49871093 31.60885517 91.0148173 52.41239357 91.3046875 74.2734375 C91.11007872 96.19935987 83.80672938 115.8034218 68.64453125 131.83203125 C52.9674151 146.98894144 32.58096665 150.9061155 11.56152344 150.72705078 C9.26439758 150.71064984 6.9689551 150.72716977 4.671875 150.74609375 C3.20051698 150.74411617 1.72915999 150.74028261 0.2578125 150.734375 C-1.05541992 150.73099121 -2.36865234 150.72760742 -3.72167969 150.72412109 C-6.9453125 150.3359375 -6.9453125 150.3359375 -8.90722656 148.97509766 C-9.9453125 147.3359375 -9.9453125 147.3359375 -9.7578125 144.7109375 C-8.9453125 142.3359375 -8.9453125 142.3359375 -6.9453125 141.3359375 C-4.59028662 141.22797868 -2.23241323 141.18027663 0.125 141.16015625 C1.59506546 141.13689841 3.06511749 141.11277896 4.53515625 141.08789062 C6.83390497 141.05326654 9.13217878 141.02372084 11.43115234 141.01000977 C30.57651993 140.87370649 48.58695716 137.35035759 62.87890625 123.60546875 C76.4974494 109.4001302 81.57910355 92.087836 81.40649414 72.7355957 C80.90836593 54.66336643 74.59253897 38.56621453 62.15234375 25.30859375 C44.35610861 8.67693842 22.37461357 9.168792 -0.9453125 8.3359375 C-0.9453125 39.0259375 -0.9453125 69.7159375 -0.9453125 101.3359375 C-4.4103125 101.8309375 -4.4103125 101.8309375 -7.9453125 102.3359375 C-10.64055478 99.64069522 -10.19131709 97.5524749 -10.21636963 93.8901062 C-10.21232117 92.98406647 -10.20827271 92.07802673 -10.20410156 91.14453125 C-10.20935852 89.71513718 -10.20935852 89.71513718 -10.21472168 88.25686646 C-10.22355003 85.09565015 -10.21768592 81.93465623 -10.2109375 78.7734375 C-10.21228383 76.58390256 -10.2142241 74.3943679 -10.21673584 72.20483398 C-10.2196886 67.61146199 -10.21538455 63.01816767 -10.20605469 58.42480469 C-10.19466011 52.52627887 -10.20121876 46.62793503 -10.21319962 40.72941589 C-10.2204141 36.20681376 -10.21813218 31.68425503 -10.21294403 27.16165161 C-10.21160639 24.9862567 -10.21325921 22.81085789 -10.21790314 20.63546753 C-10.22296159 17.59931952 -10.21526768 14.56346947 -10.20410156 11.52734375 C-10.20815002 10.62130402 -10.21219849 9.71526428 -10.21636963 8.7817688 C-10.15833395 0.29767799 -7.75308405 0.0223899 0 0 Z " fill="#8955F3" transform="translate(355.9453125,177.6640625)"/>
<path d="M0 0 C4.34520334 1.66267382 6.13225724 5.10040309 8.68359375 8.86328125 C9.24570557 9.66717285 9.80781738 10.47106445 10.38696289 11.29931641 C11.58047055 13.00894887 12.76773659 14.72295301 13.94921875 16.44091797 C15.6896163 18.96875083 17.44821477 21.48263508 19.21484375 23.9921875 C22.14747272 28.16008663 25.06590677 32.33766727 27.97998047 36.51855469 C30.89631724 40.69995433 33.82159613 44.87508736 36.74609375 49.05078125 C40.2707486 54.08508685 43.79469911 59.11988181 47.31640625 64.15625 C48.50123897 65.85030456 49.68613435 67.5443153 50.87109375 69.23828125 C51.44649902 70.06086426 52.0219043 70.88344727 52.61474609 71.73095703 C57.00341841 78.00031146 61.41237208 84.25515381 65.84033203 90.49682617 C67.93468112 93.45488158 69.99304894 96.41840852 71.95703125 99.46484375 C73.48937658 102.12288439 73.48937658 102.12288439 75.74609375 103.05078125 C75.97425781 102.36628906 76.20242187 101.68179688 76.4375 100.9765625 C78.05771844 97.35404427 80.29614732 94.37678801 82.68359375 91.23828125 C86.58416058 86.01633722 90.38749334 80.74914519 94.05859375 75.36328125 C98.18687692 69.31505651 102.3550031 63.29695158 106.55859375 57.30078125 C107.14890381 56.45854004 107.73921387 55.61629883 108.34741211 54.74853516 C109.55025057 53.03289651 110.75329494 51.31740221 111.95654297 49.60205078 C114.84647799 45.48202063 117.73424517 41.36047448 120.62109375 37.23828125 C121.18521973 36.43293945 121.7493457 35.62759766 122.33056641 34.79785156 C127.74221632 27.06692311 133.12775815 19.31786943 138.50537109 11.56323242 C139.14555176 10.64131104 139.78573242 9.71938965 140.4453125 8.76953125 C141.01080811 7.95419922 141.57630371 7.13886719 142.15893555 6.29882812 C142.68269775 5.55697266 143.20645996 4.81511719 143.74609375 4.05078125 C144.51143433 2.92833008 144.51143433 2.92833008 145.29223633 1.78320312 C146.74609375 0.05078125 146.74609375 0.05078125 149.30859375 -0.38671875 C150.51515625 -0.17015625 150.51515625 -0.17015625 151.74609375 0.05078125 C153.74609375 3.05078125 153.74609375 3.05078125 153.6875 5.27734375 C152.35975189 9.1889668 150.12372648 12.1209945 147.68359375 15.42578125 C146.58486215 16.94714062 145.48726626 18.46932066 144.390625 19.9921875 C143.80104004 20.80703613 143.21145508 21.62188477 142.60400391 22.46142578 C139.30597568 27.05786302 136.09327356 31.71351894 132.87109375 36.36328125 C131.50164063 38.33487061 130.13184901 40.3062249 128.76171875 42.27734375 C127.75334961 43.72802246 127.75334961 43.72802246 126.72460938 45.20800781 C120.84947165 53.64953097 114.93978573 62.06698189 109.03710938 70.48925781 C107.31479146 72.94704672 105.59287782 75.40511834 103.87109375 77.86328125 C103.30583984 78.66991211 102.74058594 79.47654297 102.15820312 80.30761719 C98.91047329 84.94592943 95.67457947 89.59219459 92.44921875 94.24609375 C91.72847168 95.28531982 91.00772461 96.3245459 90.26513672 97.39526367 C88.86676251 99.41257213 87.46988081 101.43091625 86.07470703 103.45043945 C85.43774902 104.36913818 84.80079102 105.28783691 84.14453125 106.234375 C83.58427246 107.04447021 83.02401367 107.85456543 82.44677734 108.68920898 C80.6282788 111.2143793 78.708725 113.63649285 76.74609375 116.05078125 C74.15234375 116.1015625 74.15234375 116.1015625 70.74609375 115.05078125 C68.1749278 112.3931162 66.25398705 109.33280253 64.24609375 106.23828125 C63.00438595 104.39420815 61.76218509 102.55046698 60.51953125 100.70703125 C59.89143555 99.76214844 59.26333984 98.81726563 58.61621094 97.84375 C55.77009512 93.59315406 52.81924839 89.41841254 49.87109375 85.23828125 C43.49857202 76.1444043 37.15763358 67.02858191 30.8203125 57.91015625 C27.44778699 53.05785738 24.06824037 48.21049447 20.68701172 43.36425781 C18.70077689 40.51294824 16.72093894 37.65728779 14.7421875 34.80078125 C11.98743838 30.82510769 9.20421996 26.87113822 6.40625 22.92578125 C5.01914797 20.94688318 3.63241631 18.96772545 2.24609375 16.98828125 C1.5924585 16.07812256 0.93882324 15.16796387 0.26538086 14.23022461 C-5.16967677 6.41332207 -5.16967677 6.41332207 -4.25390625 1.05078125 C-2.25390625 0.05078125 -2.25390625 0.05078125 0 0 Z " fill="#8954F2" transform="translate(50.25390625,126.94921875)"/>
<path d="M0 0 C2.5 -0.3125 2.5 -0.3125 5 0 C7.37422428 2.37422428 7.25069752 2.82841162 7.25447559 6.05114746 C7.26030779 6.90384468 7.26613998 7.7565419 7.27214891 8.63507843 C7.26836958 9.57727989 7.26459026 10.51948135 7.26069641 11.49023438 C7.26452196 12.48691887 7.26834751 13.48360336 7.27228898 14.51049042 C7.28266063 17.87162961 7.27861896 21.2325993 7.2746582 24.59375 C7.27900234 26.99471191 7.28418449 29.39567242 7.29014587 31.79663086 C7.30218146 37.6538202 7.30468352 43.51096704 7.30234561 49.36816406 C7.3005652 54.12687695 7.30230612 58.88557589 7.30657005 63.64428711 C7.30746284 64.65879668 7.30746284 64.65879668 7.30837366 65.6938014 C7.30958536 67.06761488 7.31079949 68.44142835 7.31201603 69.81524181 C7.32290096 82.70859872 7.32072447 95.6019295 7.31463119 108.4952879 C7.30946011 120.30171985 7.32072079 132.10806934 7.33972941 143.91448498 C7.35908043 156.02603869 7.3673687 168.13755334 7.36360615 180.24912262 C7.36169007 187.05339775 7.36422112 193.85760267 7.37832069 200.66186523 C7.39143883 207.05742425 7.38901179 213.4528591 7.37590981 219.84841919 C7.37353149 222.20191502 7.37632316 224.55542231 7.38453293 226.90890503 C7.39489629 230.10938806 7.38698405 233.30930387 7.3742218 236.50976562 C7.38159609 237.45196709 7.38897037 238.39416855 7.39656812 239.36492157 C7.38936158 240.21761879 7.38215503 241.07031601 7.37473011 241.94885254 C7.37478513 242.68822304 7.37484014 243.42759354 7.37489682 244.1893692 C7 246 7 246 4 248 C1.375 247.75 1.375 247.75 -1 247 C-2.13473246 244.73053508 -2.12621261 243.50211796 -2.12863445 240.98288059 C-2.1318589 240.13776686 -2.13508335 239.29265313 -2.1384055 238.4219299 C-2.1368569 237.48819245 -2.1353083 236.554455 -2.13371277 235.59242249 C-2.13597833 234.60461066 -2.13824388 233.61679884 -2.14057809 232.59905332 C-2.1469405 229.26792817 -2.1460873 225.93684347 -2.14526367 222.60571289 C-2.14825375 220.22607877 -2.15165593 217.84644513 -2.15544128 215.46681213 C-2.16337914 209.66143392 -2.16649659 203.85606812 -2.16705366 198.05068476 C-2.16752832 193.33346017 -2.16958052 188.61623895 -2.17275429 183.89901543 C-2.18156352 170.53434514 -2.18617322 157.16968289 -2.18542381 143.80500967 C-2.18538386 143.08407572 -2.1853439 142.36314176 -2.18530273 141.62036133 C-2.18526185 140.89855049 -2.18522097 140.17673965 -2.18517885 139.43305575 C-2.18477226 127.73078289 -2.19434438 116.02854219 -2.2084411 104.32627863 C-2.22279052 92.31981678 -2.22971208 80.31337062 -2.22884732 68.30689996 C-2.22851487 61.5624105 -2.23128325 54.81795474 -2.24202538 48.07347298 C-2.25167131 41.73292086 -2.25180973 35.39244017 -2.24450874 29.0518856 C-2.24345855 26.71977256 -2.24585136 24.38765514 -2.2518692 22.05554962 C-2.2595308 18.88180145 -2.25498321 15.70830354 -2.24723816 12.53456116 C-2.25238172 11.60305443 -2.25752529 10.67154771 -2.26282471 9.71181351 C-2.25822592 8.86409203 -2.25362712 8.01637056 -2.24888897 7.14296055 C-2.24910634 6.4100453 -2.24932371 5.67713004 -2.24954766 4.92200524 C-2 3 -2 3 0 0 Z " fill="#8854F1" transform="translate(4,127)"/>
<path d="M0 0 C1.94747806 1.94747806 1.13135871 4.91280528 1.1430676 7.50599712 C1.14220112 8.45111142 1.14133463 9.39622573 1.14044189 10.36997986 C1.14489858 11.86372496 1.14489858 11.86372496 1.1494453 13.38764673 C1.15817368 16.75184768 1.15964401 20.11601321 1.16113281 23.48022461 C1.16575801 25.88103818 1.17078226 28.281851 1.17617798 30.68266296 C1.18933152 37.2238509 1.19578876 43.76503142 1.20018864 50.30622935 C1.20294774 54.38729085 1.20718446 58.46834997 1.21169281 62.54940987 C1.22388745 73.83942358 1.23418665 85.12943537 1.2375679 96.41945553 C1.23778747 97.14251443 1.23800703 97.86557333 1.23823325 98.61054311 C1.23845153 99.3353714 1.23866981 100.06019969 1.2388947 100.80699247 C1.23933817 102.27586933 1.23978474 103.74474619 1.24023438 105.21362305 C1.24056652 106.30655287 1.24056652 106.30655287 1.24090537 107.42156208 C1.24485552 119.23451969 1.26231524 131.04741568 1.2855939 142.86034947 C1.30927799 154.97638621 1.32176839 167.092392 1.32293582 179.20845228 C1.3238542 186.01610229 1.3296473 192.82367201 1.34775543 199.63129997 C1.36471785 206.03094007 1.36643114 212.43046819 1.35761642 218.83012581 C1.35684173 221.18523694 1.36124505 223.54035603 1.37107468 225.89544678 C1.38366317 229.09816248 1.37798922 232.30032583 1.36749268 235.5030365 C1.37554908 236.44592008 1.38360548 237.38880366 1.39190602 238.36025947 C1.38531618 239.21357339 1.37872633 240.06688731 1.3719368 240.94605923 C1.37253389 241.6859718 1.37313097 242.42588437 1.37374616 243.18821853 C1 245 1 245 -2 247 C-5.51724138 246.48275862 -5.51724138 246.48275862 -7 245 C-7.09807059 241.85235776 -7.12990313 238.72663931 -7.12025452 235.57859802 C-7.12110894 234.57727327 -7.12196337 233.57594852 -7.12284368 232.54428059 C-7.12450151 229.16158273 -7.11897218 225.77893358 -7.11352539 222.39624023 C-7.11324356 219.98233033 -7.11340118 217.56842035 -7.1139679 215.1545105 C-7.11419621 209.94342508 -7.11134487 204.73235085 -7.10573006 199.52126884 C-7.09761716 191.9868371 -7.09500005 184.45241143 -7.09374207 176.91797579 C-7.09155121 164.69506963 -7.08489023 152.47217012 -7.07543945 140.24926758 C-7.06626619 128.37296583 -7.05918494 116.4966659 -7.05493164 104.62036133 C-7.05466892 103.88881014 -7.05440619 103.15725894 -7.05413551 102.40353953 C-7.05283051 98.73371272 -7.05156679 95.06388589 -7.05032361 91.39405906 C-7.03994996 60.92936794 -7.02225663 30.46468489 -7 0 C-4.31633121 -1.3418344 -2.84719317 -0.73004953 0 0 Z " fill="#8951FD" transform="translate(246,128)"/>
<path d="M0 0 C1.94747806 1.94747806 1.13135871 4.91280528 1.1430676 7.50599712 C1.14220112 8.45111142 1.14133463 9.39622573 1.14044189 10.36997986 C1.14489858 11.86372496 1.14489858 11.86372496 1.1494453 13.38764673 C1.15817368 16.75184768 1.15964401 20.11601321 1.16113281 23.48022461 C1.16575801 25.88103818 1.17078226 28.281851 1.17617798 30.68266296 C1.18933152 37.2238509 1.19578876 43.76503142 1.20018864 50.30622935 C1.20294774 54.38729085 1.20718446 58.46834997 1.21169281 62.54940987 C1.22388745 73.83942358 1.23418665 85.12943537 1.2375679 96.41945553 C1.23778747 97.14251443 1.23800703 97.86557333 1.23823325 98.61054311 C1.23845153 99.3353714 1.23866981 100.06019969 1.2388947 100.80699247 C1.23933817 102.27586933 1.23978474 103.74474619 1.24023438 105.21362305 C1.24056652 106.30655287 1.24056652 106.30655287 1.24090537 107.42156208 C1.24485552 119.23451969 1.26231524 131.04741568 1.2855939 142.86034947 C1.30927799 154.97638621 1.32176839 167.092392 1.32293582 179.20845228 C1.3238542 186.01610229 1.3296473 192.82367201 1.34775543 199.63129997 C1.36471785 206.03094007 1.36643114 212.43046819 1.35761642 218.83012581 C1.35684173 221.18523694 1.36124505 223.54035603 1.37107468 225.89544678 C1.38366317 229.09816248 1.37798922 232.30032583 1.36749268 235.5030365 C1.37554908 236.44592008 1.38360548 237.38880366 1.39190602 238.36025947 C1.38531618 239.21357339 1.37872633 240.06688731 1.3719368 240.94605923 C1.37253389 241.6859718 1.37313097 242.42588437 1.37374616 243.18821853 C1 245 1 245 -2 247 C-4.1875 246.625 -4.1875 246.625 -6 246 C-6.33 244.68 -6.66 243.36 -7 242 C-6.34 242.33 -5.68 242.66 -5 243 C-5 243.66 -5 244.32 -5 245 C-4.01 245 -3.02 245 -2 245 C-1.67 164.48 -1.34 83.96 -1 1 C-2.65 1 -4.3 1 -6 1 C-6.33 1.99 -6.66 2.98 -7 4 C-7 2.68 -7 1.36 -7 0 C-4.31633121 -1.3418344 -2.84719317 -0.73004953 0 0 Z " fill="#8760DD" transform="translate(246,128)"/>
<path d="M0 0 C0.99 0.33 1.98 0.66 3 1 C2.01 1.495 2.01 1.495 1 2 C0.67 81.2 0.34 160.4 0 242 C1.98 241.67 3.96 241.34 6 241 C6 241.66 6 242.32 6 243 C3.6875 243.6875 3.6875 243.6875 1 244 C-1.00631367 242.50477869 -1.88479348 241.58240059 -2.37489682 239.10479355 C-2.37484181 238.38457142 -2.37478679 237.66434929 -2.37473011 236.92230225 C-2.38193665 236.08913105 -2.3891432 235.25595985 -2.39656812 234.39754105 C-2.38919383 233.48228024 -2.38181955 232.56701942 -2.3742218 231.62402344 C-2.37819621 230.6516914 -2.38217061 229.67935936 -2.38626546 228.67756271 C-2.39592467 225.40468675 -2.38404831 222.13223915 -2.37231445 218.859375 C-2.37474122 216.51900063 -2.37845941 214.1786273 -2.38337708 211.83825684 C-2.39280545 205.47061248 -2.38334423 199.10312131 -2.37004495 192.73548889 C-2.35989756 186.75617319 -2.36234194 180.77686692 -2.36424746 174.79754591 C-2.36743871 162.94964006 -2.35576191 151.10179429 -2.33618164 139.25390625 C-2.3171769 127.75128347 -2.31009392 116.24873111 -2.31567383 104.74609375 C-2.32172863 92.22741725 -2.32156004 79.70877173 -2.310188 67.19009781 C-2.30418965 60.56076805 -2.30052362 53.93145701 -2.3031559 47.30212402 C-2.30503487 41.07070767 -2.29696503 34.8393821 -2.2810955 28.60798645 C-2.27684069 26.31619136 -2.27601009 24.02438708 -2.27878571 21.73258972 C-2.28199094 18.6136179 -2.2729676 15.49492019 -2.26069641 12.37597656 C-2.26447573 11.46071575 -2.26825506 10.54545494 -2.27214891 9.60245895 C-2.26631671 8.76928776 -2.26048452 7.93611656 -2.25447559 7.07769775 C-2.25360882 6.35747562 -2.25274204 5.63725349 -2.251849 4.89520645 C-2 3 -2 3 0 0 Z " fill="#7D59D4" transform="translate(301,131)"/>
<path d="M0 0 C0.495 2.475 0.495 2.475 1 5 C-4.74820591 6.96945051 -9.82233224 7.26605906 -15.87109375 7.1953125 C-17.25458763 7.19106766 -17.25458763 7.19106766 -18.66603088 7.18673706 C-21.58999013 7.17560974 -24.51363451 7.15051912 -27.4375 7.125 C-29.42903201 7.11496057 -31.42056886 7.1058364 -33.41210938 7.09765625 C-38.2748595 7.07569483 -43.1373765 7.04121673 -48 7 C-48.66 5.35 -49.32 3.7 -50 2 C-47.28223958 1.09407986 -45.58033078 0.85318432 -42.77563477 0.79467773 C-41.92787979 0.77473251 -41.08012482 0.75478729 -40.2066803 0.73423767 C-39.29413986 0.71752518 -38.38159943 0.70081268 -37.44140625 0.68359375 C-36.03035866 0.6524221 -36.03035866 0.6524221 -34.59080505 0.62062073 C-31.58144451 0.55522731 -28.57199509 0.49634018 -25.5625 0.4375 C-23.53840253 0.39429638 -21.5143138 0.3506815 -19.49023438 0.30664062 C-15.77812295 0.22727327 -12.06599709 0.14919052 -8.35375977 0.07592773 C-7.60780045 0.06117905 -6.86184113 0.04643036 -6.09327698 0.03123474 C-4.06238404 0.00093086 -2.03111901 0 0 0 Z " fill="#8A52FD" transform="translate(397,366)"/>
<path d="M0 0 C7.3607704 -0.07703497 14.72143423 -0.1290059 22.08251953 -0.16479492 C24.57865279 -0.17973894 27.07476047 -0.20010153 29.57080078 -0.22631836 C55.38440446 -0.49035642 77.74972617 2.4146752 101 14 C98.00468461 14.99843846 96.82744268 15.00732761 93.8125 14.5625 C92.554375 14.376875 91.29625 14.19125 90 14 C90 13.01 90 12.02 90 11 C87.36 10.67 84.72 10.34 82 10 C82 11.32 82 12.64 82 14 C82.99 14.99 82.99 14.99 84 16 C76.96212627 14.47512736 69.9796804 12.77149249 63 11 C63 10.67 63 10.34 63 10 C65.31 10 67.62 10 70 10 C69.01 9.01 69.01 9.01 68 8 C68.66 7.67 69.32 7.34 70 7 C70.33 6.01 70.66 5.02 71 4 C69.9275 4.020625 68.855 4.04125 67.75 4.0625 C64 4 64 4 62.13824463 3.50892639 C59.40529442 2.85845335 56.84744028 2.83599177 54.03808594 2.79467773 C52.83714294 2.77473251 51.63619995 2.75478729 50.39886475 2.73423767 C49.10708313 2.71752518 47.81530151 2.70081268 46.484375 2.68359375 C45.14487079 2.66301037 43.80537287 2.64201354 42.46588135 2.62062073 C38.94784659 2.56554291 35.4297546 2.51607094 31.91162109 2.46777344 C28.31863336 2.41745375 24.72572827 2.36182244 21.1328125 2.30664062 C14.08861345 2.199234 7.0443402 2.09775051 0 2 C0 1.34 0 0.68 0 0 Z " fill="#8457E4" transform="translate(336,131)"/>
<path d="M0 0 C-0.66 0.33 -1.32 0.66 -2 1 C-1.505 2.98 -1.505 2.98 -1 5 C-1.99 5 -2.98 5 -4 5 C-4 5.66 -4 6.32 -4 7 C-8.64475959 7.04944066 -13.28936596 7.08573863 -17.93432617 7.10986328 C-19.51443144 7.11992041 -21.0945181 7.13356785 -22.67456055 7.15087891 C-24.9458475 7.17514022 -27.21688836 7.18648582 -29.48828125 7.1953125 C-30.19463211 7.20563507 -30.90098297 7.21595764 -31.6287384 7.22659302 C-35.32197792 7.22743775 -36.83919216 7.10720523 -40 5 C-40 3.68 -40 2.36 -40 1 C-35.42850903 0.85619672 -30.8569763 0.71383119 -26.28540039 0.57275391 C-24.73265395 0.52463927 -23.17991927 0.47614297 -21.62719727 0.42724609 C-19.3856099 0.35672424 -17.14398272 0.28760959 -14.90234375 0.21875 C-14.21663803 0.19687622 -13.53093231 0.17500244 -12.82444763 0.15246582 C-8.54803059 0.02277364 -4.27824908 -0.01945764 0 0 Z " fill="#8B52FD" transform="translate(388,320)"/>
<path d="M0 0 C1.65 0.33 3.3 0.66 5 1 C6.0176403 6.01608525 6.11856434 10.78608306 6.0625 15.875 C6.05798828 16.65875 6.05347656 17.4425 6.04882812 18.25 C6.03714093 20.16670014 6.01920908 22.08336048 6 24 C5.34 24 4.68 24 4 24 C4 27.96 4 31.92 4 36 C2.68 35.34 1.36 34.68 0 34 C0.33 33.34 0.66 32.68 1 32 C0.34 32 -0.32 32 -1 32 C-1 33.65 -1 35.3 -1 37 C-1.66 36.67 -2.32 36.34 -3 36 C-2.80083984 35.11828125 -2.80083984 35.11828125 -2.59765625 34.21875 C-0.37706336 22.93748975 -0.34198913 11.46080656 0 0 Z " fill="#8B52FD" transform="translate(489,240)"/>
<path d="M0 0 C0.79897705 0.13946045 1.5979541 0.2789209 2.42114258 0.42260742 C4.42114258 3.42260742 4.42114258 3.42260742 4.42114258 5.61010742 C2.92692486 9.81259476 0.21138901 12.98386335 -2.57885742 16.42260742 C-3.56885742 16.09260742 -4.55885742 15.76260742 -5.57885742 15.42260742 C-5.57885742 14.76260742 -5.57885742 14.10260742 -5.57885742 13.42260742 C-6.19760742 14.16510742 -6.19760742 14.16510742 -6.82885742 14.92260742 C-8.57885742 16.42260742 -8.57885742 16.42260742 -12.57885742 16.42260742 C-12.84698242 17.20635742 -13.11510742 17.99010742 -13.39135742 18.79760742 C-14.57885742 21.42260742 -14.57885742 21.42260742 -17.57885742 23.42260742 C-15.58896282 18.03397521 -12.5766175 13.76504584 -9.26635742 9.11010742 C-8.41267578 7.85617188 -8.41267578 7.85617188 -7.54174805 6.5769043 C-6.98036133 5.78735352 -6.41897461 4.99780273 -5.84057617 4.18432617 C-5.33486084 3.46204834 -4.82914551 2.73977051 -4.30810547 1.99560547 C-2.57885742 0.42260742 -2.57885742 0.42260742 0 0 Z " fill="#8953F6" transform="translate(199.578857421875,126.577392578125)"/>
<path d="M0 0 C2.81468599 3.28245615 3.96291853 6.43833482 5.1875 10.5625 C5.53167969 11.69816406 5.87585938 12.83382812 6.23046875 14.00390625 C7 17 7 17 7 20 C6.01 20 5.02 20 4 20 C1.61051803 23.58422296 1.69766832 25.37232596 1.5859375 29.63671875 C1.54726563 30.93544922 1.50859375 32.23417969 1.46875 33.57226562 C1.43729483 34.94400573 1.40604749 36.31575061 1.375 37.6875 C1.33680803 39.07098785 1.29775558 40.45445223 1.2578125 41.83789062 C1.16339483 45.2251245 1.07781882 48.61235069 1 52 C0.34 52 -0.32 52 -1 52 C-0.98952637 51.31599121 -0.97905273 50.63198242 -0.96826172 49.92724609 C-0.67186321 31.36951128 -0.67186321 31.36951128 -3 13 C-1.02 12.34 0.96 11.68 3 11 C2.7834375 10.45730469 2.566875 9.91460937 2.34375 9.35546875 C1.92609375 8.28232422 1.92609375 8.28232422 1.5 7.1875 C1.2215625 6.47980469 0.943125 5.77210938 0.65625 5.04296875 C0 3 0 3 0 0 Z " fill="#8759E8" transform="translate(438,216)"/>
<path d="M0 0 C-0.66 0 -1.32 0 -2 0 C-2.33 0.99 -2.66 1.98 -3 3 C-16.53 3 -30.06 3 -44 3 C-43.67 4.32 -43.34 5.64 -43 7 C-40.05587973 8.47206013 -37.03714085 8.23807192 -33.8046875 8.31640625 C-33.09724396 8.33718735 -32.38980042 8.35796844 -31.66091919 8.37937927 C-29.39904575 8.44481078 -27.13705538 8.50372974 -24.875 8.5625 C-23.34243578 8.60569133 -21.80988343 8.64930582 -20.27734375 8.69335938 C-16.51834927 8.80048555 -12.75923708 8.9017709 -9 9 C-9 9.33 -9 9.66 -9 10 C-13.78715623 10.07415168 -18.57397827 10.12860204 -23.36157227 10.16479492 C-24.99021223 10.17988243 -26.61881156 10.20035506 -28.24731445 10.22631836 C-30.58815535 10.26270449 -32.92845919 10.2797262 -35.26953125 10.29296875 C-36.36186821 10.31619453 -36.36186821 10.31619453 -37.47627258 10.33988953 C-42.49686359 10.34156134 -42.49686359 10.34156134 -44.99487305 8.64575195 C-46 7 -46 7 -45.8125 4.375 C-45 2 -45 2 -43 1 C-40.5189224 0.85550013 -38.06137127 0.76592727 -35.578125 0.71875 C-34.47171661 0.69113586 -34.47171661 0.69113586 -33.34295654 0.66296387 C-30.97871957 0.60416225 -28.61440829 0.55142107 -26.25 0.5 C-23.15090141 0.43199271 -20.05201301 0.35819395 -16.953125 0.28125 C-16.24665833 0.26767456 -15.54019165 0.25409912 -14.81231689 0.2401123 C-11.70255649 0.16295626 -8.75793812 -0.0424269 -5.69042969 -0.58007812 C-3 -1 -3 -1 0 0 Z " fill="#8560DE" transform="translate(392,318)"/>
<path d="M0 0 C3.9252025 3.70090521 6.94580156 7.54959656 10 12 C9.67 12.66 9.34 13.32 9 14 C8.01 13.34 7.02 12.68 6 12 C4.83723158 16.06968947 4.9520282 18.27641491 7 22 C9.63043503 24.96767029 11.21848945 26.73949648 15 28 C15.28875 27.360625 15.5775 26.72125 15.875 26.0625 C17 24 17 24 19 23 C17.5 26 17.5 26 16 29 C13.10932631 29.58780752 11.76148191 29.83955436 9 29 C5.99377674 26.06910706 3.82981327 22.64233466 1.5625 19.125 C0.92634766 18.18785156 0.29019531 17.25070312 -0.36523438 16.28515625 C-5 9.36536654 -5 9.36536654 -5 7 C0.75 7.75 0.75 7.75 3 10 C2.05066101 6.64566891 1.10251165 3.30753495 0 0 Z " fill="#8E50F7" transform="translate(112,297)"/>
<path d="M0 0 C1.875 0.125 1.875 0.125 4 1 C7.41278561 5.59413447 9 10.30426858 9 16 C9.66 16.33 10.32 16.66 11 17 C11 18.32 11 19.64 11 21 C10.01 21.33 9.02 21.66 8 22 C4.32769295 18.92000054 3.43197635 16.7517398 3 12 C2.34 12 1.68 12 1 12 C-2.0656304 5.62348877 -2.0656304 5.62348877 -1.75 2.625 C-1 1 -1 1 0 0 Z " fill="#8C51FC" transform="translate(472,181)"/>
<path d="M0 0 C0.33 0.66 0.66 1.32 1 2 C0.0625 4.625 0.0625 4.625 -1 7 C-1.66 7 -2.32 7 -3 7 C-3 6.34 -3 5.68 -3 5 C-3.61875 5.350625 -4.2375 5.70125 -4.875 6.0625 C-5.57625 6.371875 -6.2775 6.68125 -7 7 C-7.66 6.67 -8.32 6.34 -9 6 C-9.33 7.65 -9.66 9.3 -10 11 C-7.69 11 -5.38 11 -3 11 C-7.07605457 15.07605457 -14.09776009 15.90327594 -19.6875 16.1875 C-20.8321875 16.0946875 -20.8321875 16.0946875 -22 16 C-22 15.34 -22 14.68 -22 14 C-21.01 14 -20.02 14 -19 14 C-19.33 12.68 -19.66 11.36 -20 10 C-19.01 9.67 -18.02 9.34 -17 9 C-16.41734375 8.37609375 -15.8346875 7.7521875 -15.234375 7.109375 C-12.45254336 4.4831703 -9.83666927 3.54120094 -6.25 2.25 C-5.07953125 1.82203125 -3.9090625 1.3940625 -2.703125 0.953125 C-1.81109375 0.63859375 -0.9190625 0.3240625 0 0 Z " fill="#8556ED" transform="translate(406,311)"/>
<path d="M0 0 C0.33 0.99 0.66 1.98 1 3 C1.66 3 2.32 3 3 3 C3.33 3.66 3.66 4.32 4 5 C5.32 4.67 6.64 4.34 8 4 C5.08785803 9.3762621 1.75648099 14.17918273 -2 19 C-3.74627478 16.38058783 -4.38722388 14.96175123 -5 12 C-5.99 12.99 -6.98 13.98 -8 15 C-8.66 14.67 -9.32 14.34 -10 14 C-6.7 9.38 -3.4 4.76 0 0 Z " fill="#8553F0" transform="translate(182,232)"/>
<path d="M0 0 C1.5 1.375 1.5 1.375 3 3 C3 3.66 3 4.32 3 5 C8.83523174 4.90600661 14.67007086 4.79981295 20.50488281 4.68261719 C22.48724388 4.64448243 24.4696705 4.60960331 26.45214844 4.578125 C29.31208624 4.53213605 32.17157882 4.47419928 35.03125 4.4140625 C35.90865845 4.40251129 36.78606689 4.39096008 37.69006348 4.37905884 C43.10622169 4.25098366 47.77923242 3.43991678 53 2 C56.1875 1.8046875 56.1875 1.8046875 59 1.875 C60.423125 1.90207031 60.423125 1.90207031 61.875 1.9296875 C62.57625 1.95289063 63.2775 1.97609375 64 2 C64 2.33 64 2.66 64 3 C61.56370116 3.48603703 59.12621435 3.96385629 56.6875 4.4375 C56.01654297 4.57220703 55.34558594 4.70691406 54.65429688 4.84570312 C43.75106485 6.94444732 32.87468411 7.18648501 21.80859375 7.18530273 C19.47638549 7.18752248 17.14462706 7.20584121 14.8125 7.22460938 C13.32291827 7.22753824 11.83333432 7.22952642 10.34375 7.23046875 C9.65003296 7.23765427 8.95631592 7.24483978 8.24157715 7.25224304 C4.59286818 7.23483812 3.1261555 7.08410366 0 5 C-0.1875 2.375 -0.1875 2.375 0 0 Z " fill="#855AE9" transform="translate(346,368)"/>
<path d="M0 0 C0 3.32554405 -0.43692272 4.0097945 -2.265625 6.65234375 C-2.74386719 7.34650391 -3.22210938 8.04066406 -3.71484375 8.75585938 C-4.22144531 9.47580078 -4.72804687 10.19574219 -5.25 10.9375 C-5.74113281 11.65357422 -6.23226562 12.36964844 -6.73828125 13.10742188 C-9.24959105 16.72035958 -11.73075455 20.0187595 -15 23 C-16 20 -16 20 -16 18 C-16.33 17.34 -16.66 16.68 -17 16 C-17.5775 16.9075 -18.155 17.815 -18.75 18.75 C-20.67772391 21.53449009 -22.58327384 23.66383138 -25 26 C-25.66 26.99 -26.32 27.98 -27 29 C-27.66 28.67 -28.32 28.34 -29 28 C-26.71540256 24.68257228 -24.4211585 21.37193392 -22.125 18.0625 C-21.47402344 17.11697266 -20.82304687 16.17144531 -20.15234375 15.19726562 C-19.21455078 13.84858398 -19.21455078 13.84858398 -18.2578125 12.47265625 C-17.6817627 11.64000244 -17.10571289 10.80734863 -16.51220703 9.94946289 C-15 8 -15 8 -13 7 C-13 9.97 -13 12.94 -13 16 C-12.34 16 -11.68 16 -11 16 C-10.67 14.35 -10.34 12.7 -10 11 C-9.34 11 -8.68 11 -8 11 C-7.67 10.01 -7.34 9.02 -7 8 C-6.02351983 6.97702078 -5.01868662 5.98095748 -4 5 C-2.65263027 3.34466005 -1.31665664 1.67987227 0 0 Z " fill="#8157E4" transform="translate(158,196)"/>
<path d="M0 0 C3.90590763 -0.17754126 6.68902394 -0.20731737 10 2 C10.33 2.66 10.66 3.32 11 4 C13.32961443 4.35840222 15.66365343 4.68848712 18 5 C20.9375 6.0625 20.9375 6.0625 23 7 C23 7.66 23 8.32 23 9 C23.66 9 24.32 9 25 9 C25 9.66 25 10.32 25 11 C22.69 11.33 20.38 11.66 18 12 C18.66 10.68 19.32 9.36 20 8 C19.01 8 18.02 8 17 8 C16.67 8.66 16.34 9.32 16 10 C10.6254511 9.44876422 5.56794574 7.91734349 1 5 C-0.0625 2.25 -0.0625 2.25 0 0 Z " fill="#8B53FB" transform="translate(416,140)"/>
<path d="M0 0 C5.40489519 1.52012677 8.98492628 5.27385218 13 9 C9.79604584 9 7.90600261 8.25664978 5 7 C5.92163282 10.68653129 6.48318281 12.58654625 9.5 15 C12.51681719 17.41345375 13.07836718 19.31346871 14 23 C13.34 22.319375 12.68 21.63875 12 20.9375 C11.00481778 19.95343714 10.00422501 18.97483306 9 18 C8.43023437 17.44570312 7.86046875 16.89140625 7.2734375 16.3203125 C2.03728552 11.47202363 -3.63949117 8.19194653 -10 5 C-6.90279155 4.12159004 -5.09354597 4.00564594 -2 5 C0.18490007 2.32357511 0.18490007 2.32357511 0 0 Z " fill="#855AE5" transform="translate(411,187)"/>
<path d="M0 0 C0.33 0.99 0.66 1.98 1 3 C1.66 3.33 2.32 3.66 3 4 C1.02 6.31 -0.96 8.62 -3 11 C-2.01 11.99 -1.02 12.98 0 14 C0.66 13.67 1.32 13.34 2 13 C0.33248852 16.94139078 -2.22710649 19.7892812 -5 23 C-5.33 22.34 -5.66 21.68 -6 21 C-5.505 20.38125 -5.01 19.7625 -4.5 19.125 C-2.80777227 17.16119096 -2.80777227 17.16119096 -3 15 C-4.98 15.33 -6.96 15.66 -9 16 C-9 17.32 -9 18.64 -9 20 C-9.70125 20.268125 -10.4025 20.53625 -11.125 20.8125 C-14.09739495 21.98691027 -14.09739495 21.98691027 -17.1875 23.6875 C-18.115625 24.120625 -19.04375 24.55375 -20 25 C-20.66 24.67 -21.32 24.34 -22 24 C-21.43152344 23.57589844 -20.86304688 23.15179688 -20.27734375 22.71484375 C-11.4680537 16.02331291 -5.35569937 9.75011937 0 0 Z " fill="#8459E6" transform="translate(430,286)"/>
<path d="M0 0 C4.70588235 0.70588235 4.70588235 0.70588235 6 2 C6.0942174 4.11681317 6.11742761 6.23680758 6.11352539 8.35571289 C6.11367142 9.01910172 6.11381744 9.68249054 6.1139679 10.36598206 C6.11326881 12.56823956 6.10547665 14.77041345 6.09765625 16.97265625 C6.09579206 18.49580336 6.09436816 20.01895107 6.09336853 21.542099 C6.08954346 25.55837651 6.07971328 29.57461808 6.06866455 33.59088135 C6.05845019 37.68623366 6.05387086 41.78159176 6.04882812 45.87695312 C6.038091 53.91798528 6.02101472 61.95898817 6 70 C5.67 70 5.34 70 5 70 C4.505 38.32 4.505 38.32 4 6 C0.72724974 6 -1.846632 6.29925156 -5 7 C-1.125 1.125 -1.125 1.125 0 0 Z " fill="#8B5DF9" transform="translate(193,217)"/>
<path d="M0 0 C0.5534764 2.07553648 1 3.84365964 1 6 C0.0409375 6.37125 0.0409375 6.37125 -0.9375 6.75 C-3.18741541 7.81562433 -3.18741541 7.81562433 -3.75 10.125 C-3.8325 10.74375 -3.915 11.3625 -4 12 C-3.236875 11.34 -2.47375 10.68 -1.6875 10 C1 8 1 8 4 8 C4 7.34 4 6.68 4 6 C4.66 6 5.32 6 6 6 C4.55797524 10.15151338 2.4989562 13.29978445 -0.125 16.8125 C-0.84945313 17.78832031 -1.57390625 18.76414062 -2.3203125 19.76953125 C-2.87460937 20.50558594 -3.42890625 21.24164063 -4 22 C-6 19 -6 19 -5.625 16.3125 C-5.41875 15.549375 -5.2125 14.78625 -5 14 C-5.78375 14.515625 -6.5675 15.03125 -7.375 15.5625 C-8.24125 16.036875 -9.1075 16.51125 -10 17 C-10.66 16.67 -11.32 16.34 -12 16 C-10.700625 14.5459375 -10.700625 14.5459375 -9.375 13.0625 C-5.84803156 8.96449858 -2.90897683 4.54914461 0 0 Z " fill="#8657ED" transform="translate(471,314)"/>
<path d="M0 0 C2.3125 0.8125 2.3125 0.8125 4 2 C3.75 4.375 3.75 4.375 3 7 C-0.2955753 9.66181082 -3.93339881 9.15640774 -8 9 C-8 9.66 -8 10.32 -8 11 C-9.32 11.33 -10.64 11.66 -12 12 C-12 11.01 -12 10.02 -12 9 C-12.99 9 -13.98 9 -15 9 C-14.67 8.01 -14.34 7.02 -14 6 C-12.109375 5.15625 -12.109375 5.15625 -9.75 4.5 C-6.79335594 3.62378377 -4.81431289 2.88033498 -2.1875 1.1875 C-1.465625 0.795625 -0.74375 0.40375 0 0 Z " fill="#8B53F9" transform="translate(432,354)"/>
<path d="M0 0 C0 0.66 0 1.32 0 2 C0.598125 2.2475 1.19625 2.495 1.8125 2.75 C4.40409822 4.23091327 5.49675313 5.42300536 7 8 C7.8125 11.125 7.8125 11.125 8 14 C7.34 14.66 6.68 15.32 6 16 C4.02 15.34 2.04 14.68 0 14 C-0.12375 12.081875 -0.12375 12.081875 -0.25 10.125 C-0.45869931 7.94666582 -0.45869931 7.94666582 -1 6 C-2.92064793 4.4100567 -2.92064793 4.4100567 -5 4 C-5 3.01 -5 2.02 -5 1 C-3 0 -3 0 0 0 Z " fill="#8B52FA" transform="translate(85,260)"/>
<path d="M0 0 C0.66 0 1.32 0 2 0 C3.90119706 2.13884669 5.0073691 4.01863948 6.0625 6.6875 C6.76803846 9.15938605 6.76803846 9.15938605 9 10 C9 10.99 9 11.98 9 13 C9.66 13.33 10.32 13.66 11 14 C9.35 15.65 7.7 17.3 6 19 C5.67 17.35 5.34 15.7 5 14 C4.34 14 3.68 14 3 14 C2.566875 13.05125 2.13375 12.1025 1.6875 11.125 C0.20697799 7.79958063 0.20697799 7.79958063 -3 6 C-2 4 -1 2 0 0 Z " fill="#8C52FD" transform="translate(110,214)"/>
<path d="M0 0 C6.39615645 0.47378937 12.36054873 1.8120061 18 5 C18.33 5.99 18.66 6.98 19 8 C17.75 9.5625 17.75 9.5625 16 11 C12.22670216 10.73047873 8.42368802 8.51432355 5 7 C5 6.34 5 5.68 5 5 C4.67 4.67 4.34 4.34 4 4 C3.67 3.01 3.34 2.02 3 1 C2.01 0.67 1.02 0.34 0 0 Z " fill="#8B52FB" transform="translate(393,182)"/>
<path d="M0 0 C0 3.51232901 -0.69713812 4.37553265 -2.66796875 7.203125 C-3.51391602 8.42708984 -3.51391602 8.42708984 -4.37695312 9.67578125 C-4.97443359 10.52527344 -5.57191406 11.37476563 -6.1875 12.25 C-6.76564453 13.08402344 -7.34378906 13.91804688 -7.93945312 14.77734375 C-11.25278822 19.54704873 -14.61418916 24.28154422 -18 29 C-19.34882814 26.30234372 -18.80338265 24.84835666 -18 22 C-17.34 21.67 -16.68 21.34 -16 21 C-16.33 19.35 -16.66 17.7 -17 16 C-14.50907189 14.75453595 -13.58919267 15.2232422 -11 16 C-10.67 14.68 -10.34 13.36 -10 12 C-9.34 12 -8.68 12 -8 12 C-8 11.01 -8 10.02 -8 9 C-7.34 9 -6.68 9 -6 9 C-6 7.68 -6 6.36 -6 5 C-5.01 4.67 -4.02 4.34 -3 4 C-1.31461399 2.00334686 -1.31461399 2.00334686 0 0 Z " fill="#8358E4" transform="translate(178,251)"/>
<path d="M0 0 C3.9252025 3.70090521 6.94580156 7.54959656 10 12 C9.67 12.66 9.34 13.32 9 14 C7.35 13.67 5.7 13.34 4 13 C3.67 14.65 3.34 16.3 3 18 C-0.04516202 15.16667533 -2.16868601 12.34499689 -4.25 8.75 C-4.77078125 7.85796875 -5.2915625 6.9659375 -5.828125 6.046875 C-6.21484375 5.37140625 -6.6015625 4.6959375 -7 4 C-5.0625 4.3125 -5.0625 4.3125 -3 5 C-2.33333333 7 -1.66666667 9 -1 11 C1.03243548 11.96877057 1.03243548 11.96877057 3 12 C2.58413646 7.7212019 2.58413646 7.7212019 0.4375 4.125 C-0.036875 3.75375 -0.51125 3.3825 -1 3 C-0.67 2.01 -0.34 1.02 0 0 Z " fill="#8658E6" transform="translate(68,234)"/>
<path d="M0 0 C1.32 0.33 2.64 0.66 4 1 C4 1.99 4 2.98 4 4 C3.01 4.66 2.02 5.32 1 6 C0.67 6.99 0.34 7.98 0 9 C-1.84765625 10.82421875 -1.84765625 10.82421875 -4.0625 12.6875 C-4.79597656 13.31011719 -5.52945313 13.93273437 -6.28515625 14.57421875 C-6.85105469 15.04472656 -7.41695312 15.51523438 -8 16 C-8.66 15.67 -9.32 15.34 -10 15 C-9.6875 12.625 -9.6875 12.625 -9 10 C-8.01 9.34 -7.02 8.68 -6 8 C-5.690625 7.154375 -5.38125 6.30875 -5.0625 5.4375 C-4.711875 4.633125 -4.36125 3.82875 -4 3 C-1.875 2.1875 -1.875 2.1875 0 2 C0 1.34 0 0.68 0 0 Z " fill="#8D52FC" transform="translate(169,172)"/>
<path d="M0 0 C0.9075 0.309375 1.815 0.61875 2.75 0.9375 C5.79539711 2.03924838 5.79539711 2.03924838 8.25 2.3125 C10 3 10 3 11.25 5.375 C12 8 12 8 12 11 C10.23046875 11.66015625 10.23046875 11.66015625 8 12 C5.19122906 10.50547799 3.03842389 8.43001584 1 6 C0.0625 2.625 0.0625 2.625 0 0 Z " fill="#8C51FC" transform="translate(415,193)"/>
<path d="M0 0 C0.66 0 1.32 0 2 0 C3.11328125 1.609375 3.11328125 1.609375 4.3125 3.75 C6.021629 6.64432858 7.09725926 8.07564609 9.8125 10.1875 C12 12 12 12 12.3125 14.75 C12.1578125 15.86375 12.1578125 15.86375 12 17 C12.598125 17.226875 13.19625 17.45375 13.8125 17.6875 C16.56559434 19.33935661 17.44224619 21.23852733 19 24 C19.66 24.33 20.32 24.66 21 25 C21 26.65 21 28.3 21 30 C16.8062064 26.09490958 13.67416968 21.8818089 10.5 17.125 C9.57354231 15.75218174 8.64646316 14.37978266 7.71875 13.0078125 C7.27144531 12.34168945 6.82414062 11.67556641 6.36328125 10.98925781 C5.00038132 9.00055641 3.58444624 7.05933323 2.15625 5.1171875 C0 2 0 2 0 0 Z " fill="#8259E0" transform="translate(95,203)"/>
<path d="M0 0 C5.75765703 2.95063603 11.72177522 6.02147056 16 11 C16.6875 13.18359375 16.6875 13.18359375 17 15 C15.35 15.66 13.7 16.32 12 17 C12.66 17 13.32 17 14 17 C14.33 18.65 14.66 20.3 15 22 C13.68388323 21.04663979 12.37221039 20.08714226 11.0625 19.125 C10.33160156 18.59132812 9.60070312 18.05765625 8.84765625 17.5078125 C7 16 7 16 6 14 C8.475 14.99 8.475 14.99 11 16 C11.33 13.69 11.66 11.38 12 9 C9.66785852 7.79371992 7.50357861 6.8345262 5 6 C5 5.34 5 4.68 5 4 C4.01 4 3.02 4 2 4 C2 3.34 2 2.68 2 2 C1.34 2 0.68 2 0 2 C0 1.34 0 0.68 0 0 Z " fill="#8859EA" transform="translate(439,147)"/>
<path d="M0 0 C4.95 1.98 4.95 1.98 10 4 C10 5.98 10 7.96 10 10 C8.35 10.66 6.7 11.32 5 12 C4.34 10.35 3.68 8.7 3 7 C2.34 7 1.68 7 1 7 C0.34 5.02 -0.32 3.04 -1 1 C-0.67 0.67 -0.34 0.34 0 0 Z " fill="#8C52FA" transform="translate(78,173)"/>
<path d="M0 0 C2.3125 2.5625 2.3125 2.5625 4 5 C3.67 5.66 3.34 6.32 3 7 C1.35 5.35 -0.3 3.7 -2 2 C-2.88080989 4.45525756 -3.15673298 5.60063232 -2.1875 8.0703125 C-1.5996875 9.08738281 -1.5996875 9.08738281 -1 10.125 C0.1875 12.1953125 0.1875 12.1953125 1 14 C0.67 14.66 0.34 15.32 0 16 C-1.18403314 14.47163069 -2.34659067 12.92661017 -3.5 11.375 C-4.1496875 10.51648438 -4.799375 9.65796875 -5.46875 8.7734375 C-7.2313466 5.58097937 -7.29483737 3.59069802 -7 0 C-4.20824656 -1.39587672 -2.93876905 -0.97958968 0 0 Z " fill="#8558E4" transform="translate(53,128)"/>
<path d="M0 0 C0.66 0 1.32 0 2 0 C4 3 4 3 4 7 C3.34 7 2.68 7 2 7 C2 7.66 2 8.32 2 9 C-0.63892176 10.78305524 -2.97178863 11.99059621 -6 13 C-5.39595755 9.17439781 -4.7294677 7.7294677 -2 5 C-1.31246699 3.34183216 -0.64438717 1.67540664 0 0 Z " fill="#8D51FC" transform="translate(473,313)"/>
<path d="M0 0 C3.63559661 3.43361902 6.36113346 6.7973607 9 11 C8.67 11.66 8.34 12.32 8 13 C7.34 11.68 6.68 10.36 6 9 C5.34 9 4.68 9 4 9 C3.34 10.32 2.68 11.64 2 13 C0.4375 11.5625 0.4375 11.5625 -1 9 C-0.96846324 5.94619073 -0.53266629 3.00346778 0 0 Z " fill="#8758EC" transform="translate(106,205)"/>
<path d="M0 0 C1.65 0.99 3.3 1.98 5 3 C4.67 5.31 4.34 7.62 4 10 C0.08597051 8.73058503 -1.79072873 7.48832306 -4 4 C-2.68 2.68 -1.36 1.36 0 0 Z " fill="#8B52FC" transform="translate(446,153)"/>
<path d="M0 0 C-1.20381448 2.49361571 -2.45428722 4.68143083 -4 7 C-6.1640625 7.51171875 -6.1640625 7.51171875 -8.625 7.6875 C-9.44226563 7.75324219 -10.25953125 7.81898438 -11.1015625 7.88671875 C-11.72804688 7.92410156 -12.35453125 7.96148437 -13 8 C-12.34 7.01 -11.68 6.02 -11 5 C-9.68 5 -8.36 5 -7 5 C-7.33 3.68 -7.66 2.36 -8 1 C-3.375 -1.125 -3.375 -1.125 0 0 Z " fill="#8C51FD" transform="translate(428,301)"/>
<path d="M0 0 C0.99 0.66 1.98 1.32 3 2 C2.67 3.98 2.34 5.96 2 8 C1.01 8 0.02 8 -1 8 C-1.33 9.65 -1.66 11.3 -2 13 C-2.33 12.01 -2.66 11.02 -3 10 C-3.99 9.67 -4.98 9.34 -6 9 C-6 8.34 -6 7.68 -6 7 C-5.34 7 -4.68 7 -4 7 C-3.71125 6.030625 -3.4225 5.06125 -3.125 4.0625 C-2 1 -2 1 0 0 Z " fill="#8B53FC" transform="translate(141,211)"/>
<path d="M0 0 C1.875 0.1875 1.875 0.1875 4 1 C5.87679987 4.37823976 6.21849583 7.17632299 6 11 C5.01 10.67 4.02 10.34 3 10 C2.01 10 1.02 10 0 10 C0 9.34 0 8.68 0 8 C-0.66 7.67 -1.32 7.34 -2 7 C-1.67 6.21625 -1.34 5.4325 -1 4.625 C0.11866511 2.15667503 0.11866511 2.15667503 0 0 Z " fill="#8C50FB" transform="translate(109,296)"/>
<path d="M0 0 C0.99 0.33 1.98 0.66 3 1 C2.38545304 4.99455527 0.29353263 7.74466336 -2 11 C-3.32 10.34 -4.64 9.68 -6 9 C-5.34 7.35 -4.68 5.7 -4 4 C-3.34 4 -2.68 4 -2 4 C-1.34 2.68 -0.68 1.36 0 0 Z " fill="#8B52FC" transform="translate(432,290)"/>
<path d="M0 0 C0.47730962 3.72301503 0.1387261 4.79191085 -2 8 C-2.66 8 -3.32 8 -4 8 C-4 7.34 -4 6.68 -4 6 C-4.66 6 -5.32 6 -6 6 C-7.4606285 3.35261084 -8 2.10551666 -8 -1 C-3.375 -2.25 -3.375 -2.25 0 0 Z " fill="#8A53FC" transform="translate(97,192)"/>
<path d="M0 0 C1.5 1.375 1.5 1.375 3 3 C3 3.66 3 4.32 3 5 C14.22 5.33 25.44 5.66 37 6 C37 6.33 37 6.66 37 7 C32.21282458 7.04943465 27.42579773 7.08573582 22.63842773 7.10986328 C21.00982068 7.11992142 19.38123168 7.13356958 17.75268555 7.15087891 C15.41190128 7.17513574 13.07135576 7.18648483 10.73046875 7.1953125 C9.63813179 7.21079636 9.63813179 7.21079636 8.52372742 7.22659302 C4.78724931 7.22742249 3.19324944 7.12883296 0 5 C-0.1875 2.375 -0.1875 2.375 0 0 Z " fill="#8167CA" transform="translate(346,368)"/>
<path d="M0 0 C3.05084367 0.50847395 6.09179031 1.01835806 9.125 1.625 C11.84035967 1.97917735 13.44569917 1.88418106 16 1 C16 1.99 16 2.98 16 4 C16.94978897 6.15028304 16.94978897 6.15028304 18 8 C13.66695924 7.35534798 10.13327935 5.81074878 6.1875 3.9375 C5.02605469 3.38964844 3.86460937 2.84179688 2.66796875 2.27734375 C1.78753906 1.85582031 0.90710938 1.43429688 0 1 C0 0.67 0 0.34 0 0 Z " fill="#8657EB" transform="translate(420,147)"/>
<path d="M0 0 C2 1 2 1 2.8125 3.25 C4.28802915 6.66701488 6.21845518 8.55766796 9 11 C9.99 11.33 10.98 11.66 12 12 C12.28875 11.360625 12.5775 10.72125 12.875 10.0625 C14 8 14 8 16 7 C15 9 14 11 13 13 C9.9375 13.625 9.9375 13.625 6 13 C3.09585403 10.00768261 0.8014241 6.76284311 -1 3 C-0.67 2.01 -0.34 1.02 0 0 Z " fill="#8259E2" transform="translate(115,313)"/>
<path d="M0 0 C2 1 2 1 3.125 3.375 C4 6 4 6 4 9 C2.02 9.66 0.04 10.32 -2 11 C-2 8.69 -2 6.38 -2 4 C-2.66 3.67 -3.32 3.34 -4 3 C-2.68 3 -1.36 3 0 3 C0 2.01 0 1.02 0 0 Z " fill="#8C51FD" transform="translate(437,218)"/>
<path d="M0 0 C0.66 0 1.32 0 2 0 C3 1.33333333 4 2.66666667 5 4 C5.66 4 6.32 4 7 4 C9.85823855 8.28735783 10.80748725 13.0311969 12 18 C9.1660472 14.49585566 6.42305121 10.94091952 3.75 7.3125 C3.04359375 6.35988281 2.3371875 5.40726563 1.609375 4.42578125 C0 2 0 2 0 0 Z " fill="#845BE1" transform="translate(79,180)"/>
<path d="M0 0 C1.67542976 0.28604898 3.34385343 0.61781233 5 1 C5 2.32 5 3.64 5 5 C1.66666667 5.66666667 -1.66666667 6.33333333 -5 7 C-1.125 1.125 -1.125 1.125 0 0 Z " fill="#865BE6" transform="translate(193,217)"/>
<path d="M0 0 C5.32732146 3.9320706 8.5475182 8.38053494 12 14 C11.67 14.66 11.34 15.32 11 16 C10.01 16 9.02 16 8 16 C7 13 7 13 8 10 C7.21625 9.773125 6.4325 9.54625 5.625 9.3125 C3 8 3 8 1.75 5.5625 C1.5025 4.716875 1.255 3.87125 1 3 C0.67 2.01 0.34 1.02 0 0 Z " fill="#885AEC" transform="translate(425,198)"/>
<path d="M0 0 C1 2 1 2 0.25 4.5625 C-1 7 -1 7 -4 8 C-5.21869929 10.50447516 -5.21869929 10.50447516 -6 13 C-6.66 13 -7.32 13 -8 13 C-8.268125 13.78375 -8.53625 14.5675 -8.8125 15.375 C-10 18 -10 18 -13 20 C-11.40013936 15.03657693 -8.47460168 11.29801238 -5.375 7.1875 C-4.6015625 6.14819336 -4.6015625 6.14819336 -3.8125 5.08789062 C-2.54657074 3.38826337 -1.27394735 1.69362565 0 0 Z " fill="#7D58D8" transform="translate(195,130)"/>
<path d="M0 0 C2.0625 0.4375 2.0625 0.4375 4 1 C3.125 7.75 3.125 7.75 2 10 C1.34 9.67 0.68 9.34 0 9 C0.33 8.34 0.66 7.68 1 7 C0.01 6.67 -0.98 6.34 -2 6 C-1.125 1.125 -1.125 1.125 0 0 Z " fill="#8B53FC" transform="translate(487,281)"/>
<path d="M0 0 C1.32 0.33 2.64 0.66 4 1 C4 2.32 4 3.64 4 5 C4.99 5 5.98 5 7 5 C6.67 6.32 6.34 7.64 6 9 C6.66 9 7.32 9 8 9 C8 9.99 8 10.98 8 12 C8.66 12 9.32 12 10 12 C10 14.31 10 16.62 10 19 C8.06088714 16.09133071 6.54812881 13.19359052 5 10.0625 C4.484375 9.02222656 3.96875 7.98195312 3.4375 6.91015625 C2.963125 5.94980469 2.48875 4.98945313 2 4 C1.33420952 2.66622893 0.66795088 1.33269045 0 0 Z " fill="#875AE4" transform="translate(425,210)"/>
<path d="M0 0 C0.33 0 0.66 0 1 0 C0.979375 0.763125 0.95875 1.52625 0.9375 2.3125 C0.87057159 5.10185786 0.87057159 5.10185786 2 8 C0.5625 10.1875 0.5625 10.1875 -1 12 C-1.66 11.67 -2.32 11.34 -3 11 C-3.33 12.65 -3.66 14.3 -4 16 C-4.66 16 -5.32 16 -6 16 C-4.25192871 10.53262809 -2.34205919 5.24175152 0 0 Z " fill="#7F54E5" transform="translate(480,294)"/>
<path d="M0 0 C0.66 1.32 1.32 2.64 2 4 C1.01 4.495 1.01 4.495 0 5 C0 5.66 0 6.32 0 7 C-0.928125 7.3403125 -0.928125 7.3403125 -1.875 7.6875 C-4.22720631 8.84931972 -4.22720631 8.84931972 -5 11.5 C-6 14 -6 14 -8.125 15.3125 C-9.053125 15.6528125 -9.053125 15.6528125 -10 16 C-8.55797524 11.84848662 -6.4989562 8.70021555 -3.875 5.1875 C-3.15054688 4.21167969 -2.42609375 3.23585937 -1.6796875 2.23046875 C-0.84824219 1.12638672 -0.84824219 1.12638672 0 0 Z " fill="#7F5AD6" transform="translate(169,167)"/>
<path d="M0 0 C0.5534764 2.07553648 1 3.84365964 1 6 C0.071875 6.3403125 0.071875 6.3403125 -0.875 6.6875 C-3.20921981 7.8364256 -3.20921981 7.8364256 -3.9375 10.375 C-5.27448384 13.67813656 -7.13649309 14.96540299 -10 17 C-10.66 16.67 -11.32 16.34 -12 16 C-10.700625 14.5459375 -10.700625 14.5459375 -9.375 13.0625 C-5.84803156 8.96449858 -2.90897683 4.54914461 0 0 Z " fill="#8158DE" transform="translate(471,314)"/>
<path d="M0 0 C0.66 0.33 1.32 0.66 2 1 C2 2.98 2 4.96 2 7 C0.35 7.33 -1.3 7.66 -3 8 C-3.66 7.01 -4.32 6.02 -5 5 C-3.35 3.35 -1.7 1.7 0 0 Z " fill="#8C52FD" transform="translate(174,164)"/>
<path d="M0 0 C0.66 1.32 1.32 2.64 2 4 C0.55201121 6.89597758 -1.8263147 8.43859926 -4.30859375 10.46484375 C-6.23379984 12.08710661 -6.23379984 12.08710661 -8 15 C-8.66 14.67 -9.32 14.34 -10 14 C-6.7 9.38 -3.4 4.76 0 0 Z " fill="#845AE2" transform="translate(182,232)"/>
<path d="M0 0 C0 0.66 0 1.32 0 2 C-5.63277591 6.50622073 -11.75059987 8.45308751 -19 8 C-15.7859082 5.85727214 -12.47398867 4.37881715 -8.9375 2.875 C-8.30005859 2.59785156 -7.66261719 2.32070313 -7.00585938 2.03515625 C-2.24880696 0 -2.24880696 0 0 0 Z " fill="#815ADF" transform="translate(432,353)"/>
<path d="M0 0 C0 0.33 0 0.66 0 1 C-2.56149628 1.50567729 -5.12399465 2.00470132 -7.6875 2.5 C-8.7693457 2.71462891 -8.7693457 2.71462891 -9.87304688 2.93359375 C-13.63841359 3.65571887 -17.14473813 4.1824976 -21 4 C-15.75134704 -1.24865296 -6.88499457 -0.22781232 0 0 Z " fill="#825CDC" transform="translate(410,370)"/>
<path d="M0 0 C3.9252025 3.70090521 6.94580156 7.54959656 10 12 C9.67 12.66 9.34 13.32 9 14 C5.02916144 11.84193557 3.27929344 10.75808218 1.6875 6.4375 C1.460625 5.303125 1.23375 4.16875 1 3 C0.67 2.01 0.34 1.02 0 0 Z " fill="#845BE0" transform="translate(112,297)"/>
<path d="M0 0 C1.65 0 3.3 0 5 0 C5.33 1.65 5.66 3.3 6 5 C4.35 5.66 2.7 6.32 1 7 C1 6.34 1 5.68 1 5 C0.34 5 -0.32 5 -1 5 C-0.67 3.35 -0.34 1.7 0 0 Z " fill="#8C52FD" transform="translate(72,247)"/>
<path d="M0 0 C2.475 0.495 2.475 0.495 5 1 C4.67 2.98 4.34 4.96 4 7 C2.68 7.33 1.36 7.66 0 8 C0 5.36 0 2.72 0 0 Z " fill="#8A53FC" transform="translate(68,157)"/>
<path d="M0 0 C0.66 0.99 1.32 1.98 2 3 C1.34 3 0.68 3 0 3 C0 4.32 0 5.64 0 7 C-0.66 7 -1.32 7 -2 7 C-2.33 7.99 -2.66 8.98 -3 10 C-3.99 9.34 -4.98 8.68 -6 8 C-6 7.34 -6 6.68 -6 6 C-4.68 5.67 -3.36 5.34 -2 5 C-2.33 3.68 -2.66 2.36 -3 1 C-2.01 0.67 -1.02 0.34 0 0 Z " fill="#8C51FD" transform="translate(183,153)"/>
<path d="M0 0 C3.9252025 3.70090521 6.94580156 7.54959656 10 12 C9.67 12.66 9.34 13.32 9 14 C8.46375 13.278125 7.9275 12.55625 7.375 11.8125 C4.7907112 8.752158 2.12751986 6.48779989 -1 4 C-0.67 2.68 -0.34 1.36 0 0 Z " fill="#835DD9" transform="translate(68,234)"/>
<path d="M0 0 C0.99 0.66 1.98 1.32 3 2 C3.66 2 4.32 2 5 2 C5 3.98 5 5.96 5 8 C3.68 8 2.36 8 1 8 C0.67 6.35 0.34 4.7 0 3 C-0.66 3 -1.32 3 -2 3 C-1 1 -1 1 0 0 Z " fill="#8C52FD" transform="translate(453,161)"/>
<path d="M0 0 C3 1 3 1 5 4 C7.05003955 5.19232613 7.05003955 5.19232613 9 6 C9 7.98 9 9.96 9 12 C4.99027798 8.32442148 2.54664585 4.81033104 0 0 Z " fill="#845CE1" transform="translate(76,260)"/>
<path d="M0 0 C3.60013845 3.40013076 6.32181642 6.8441979 9 11 C9.66 11.66 10.32 12.32 11 13 C7.76509224 12.44225728 6.02144994 11.62788492 4 9 C4 8.01 4 7.02 4 6 C2.68 5.34 1.36 4.68 0 4 C0 2.68 0 1.36 0 0 Z " fill="#8057E1" transform="translate(115,218)"/>
<path d="M0 0 C3.39417765 3.12621626 5.6062718 5.56541027 7 10 C2.37837838 8.54054054 2.37837838 8.54054054 0.6875 6.125 C0 4 0 4 0 0 Z " fill="#865AE3" transform="translate(59,138)"/>
<path d="M0 0 C1.98 0 3.96 0 6 0 C6 0.66 6 1.32 6 2 C5.01 2.495 5.01 2.495 4 3 C3.34786708 5.02463255 3.34786708 5.02463255 3 7 C2.34 7 1.68 7 1 7 C0.67 4.69 0.34 2.38 0 0 Z " fill="#8C51FC" transform="translate(144,205)"/>
<path d="M0 0 C2.375 -0.1875 2.375 -0.1875 5 0 C7 3 7 3 6.75 5.625 C6.5025 6.40875 6.255 7.1925 6 8 C5.01 8.495 5.01 8.495 4 9 C4 7.02 4 5.04 4 3 C2.35 3 0.7 3 -1 3 C-0.67 2.01 -0.34 1.02 0 0 Z " fill="#7E59DC" transform="translate(197,127)"/>
<path d="M0 0 C0.99 0 1.98 0 3 0 C1.6062718 4.43458973 -0.60582235 6.87378374 -4 10 C-3.43768609 6.06380262 -2.38314183 3.20807554 0 0 Z " fill="#7F58DE" transform="translate(170,176)"/>
<path d="M0 0 C1.32 0 2.64 0 4 0 C3.1875 2.9375 3.1875 2.9375 2 6 C1.01 6.33 0.02 6.66 -1 7 C-1.04254356 5.00045254 -1.04080783 2.99958364 -1 1 C-0.67 0.67 -0.34 0.34 0 0 Z " fill="#8955FA" transform="translate(481,204)"/>
<path d="M0 0 C1.43088528 2.86177057 0.59991697 4.93375773 0 8 C-0.66 8 -1.32 8 -2 8 C-2 7.34 -2 6.68 -2 6 C-3.65 5.67 -5.3 5.34 -7 5 C-6.34 4.01 -5.68 3.02 -5 2 C-4.34 2.66 -3.68 3.32 -3 4 C-2.01 2.68 -1.02 1.36 0 0 Z " fill="#8458E8" transform="translate(128,309)"/>
<path d="M0 0 C3 1 3 1 4.75 3.4375 C5.36875 4.7059375 5.36875 4.7059375 6 6 C5.67 6.66 5.34 7.32 5 8 C2.9375 8.625 2.9375 8.625 1 9 C1.020625 8.071875 1.04125 7.14375 1.0625 6.1875 C1.15769604 2.97713989 1.15769604 2.97713989 0 0 Z " fill="#8858EC" transform="translate(473,181)"/>
<path d="M0 0 C1.5 1.375 1.5 1.375 3 3 C3 3.66 3 4.32 3 5 C5.64 5.33 8.28 5.66 11 6 C11 6.33 11 6.66 11 7 C9.741875 7.04125 8.48375 7.0825 7.1875 7.125 C6.47980469 7.14820313 5.77210938 7.17140625 5.04296875 7.1953125 C3 7 3 7 0 5 C-0.1875 2.375 -0.1875 2.375 0 0 Z " fill="#7F5ED6" transform="translate(346,368)"/>
<path d="M0 0 C2.97 0.495 2.97 0.495 6 1 C5.67 2.98 5.34 4.96 5 7 C3.29115995 5.37660195 1.62553283 3.70680947 0 2 C0 1.34 0 0.68 0 0 Z " fill="#8458E7" transform="translate(107,304)"/>
<path d="M0 0 C0.33 0 0.66 0 1 0 C1 2.31 1 4.62 1 7 C-0.65 7.66 -2.3 8.32 -4 9 C-4.66 8.34 -5.32 7.68 -6 7 C-5.38125 6.95875 -4.7625 6.9175 -4.125 6.875 C-3.42375 6.58625 -2.7225 6.2975 -2 6 C-0.6954344 3.00384054 -0.6954344 3.00384054 0 0 Z " fill="#805FD5" transform="translate(198,366)"/>
<path d="M0 0 C2.60608273 2.5162178 4.89381685 5.05134359 7 8 C6.67 8.66 6.34 9.32 6 10 C2.64888166 7.76592111 1.18446044 6.73784176 0.1875 2.75 C0.125625 1.8425 0.06375 0.935 0 0 Z " fill="#835EDB" transform="translate(92,268)"/>
<path d="M0 0 C0.66 0 1.32 0 2 0 C2.185625 0.9590625 2.185625 0.9590625 2.375 1.9375 C2.684375 2.9584375 2.684375 2.9584375 3 4 C3.66 4.33 4.32 4.66 5 5 C4.67 5.99 4.34 6.98 4 8 C3.01 8.33 2.02 8.66 1 9 C0.08941469 5.92677456 -0.08886184 3.19902639 0 0 Z " fill="#7F4CF7" transform="translate(483,283)"/>
<path d="M0 0 C0.99 0 1.98 0 3 0 C1.68775452 3.93673644 0.08089673 6.22719294 -3 9 C-3 7.35 -3 5.7 -3 4 C-2.34 4 -1.68 4 -1 4 C-0.67 2.68 -0.34 1.36 0 0 Z " fill="#7A57E2" transform="translate(140,219)"/>
<path d="M0 0 C0.66 0.66 1.32 1.32 2 2 C1.67 2.99 1.34 3.98 1 5 C-0.98 5 -2.96 5 -5 5 C-4.34 4.67 -3.68 4.34 -3 4 C-2.67 3.01 -2.34 2.02 -2 1 C-1.34 0.67 -0.68 0.34 0 0 Z " fill="#8D51FD" transform="translate(150,286)"/>
<path d="M0 0 C0.66 0 1.32 0 2 0 C2 0.99 2 1.98 2 3 C2.66 3 3.32 3 4 3 C4 5.31 4 7.62 4 10 C0 4 0 4 0 0 Z " fill="#7C55E1" transform="translate(431,219)"/>
<path d="M0 0 C0.86625 0.4640625 0.86625 0.4640625 1.75 0.9375 C3.84294184 1.92583364 5.74535275 2.5168613 8 3 C8.33 4.65 8.66 6.3 9 8 C7.68388323 7.04663979 6.37221039 6.08714226 5.0625 5.125 C4.33160156 4.59132812 3.60070312 4.05765625 2.84765625 3.5078125 C1 2 1 2 0 0 Z " fill="#805EDA" transform="translate(445,161)"/>
<path d="M0 0 C3.42269984 1.14089995 4.7522146 2.20964571 7 5 C7.25 7.75 7.25 7.75 7 10 C4.3513141 6.80331012 2.06007659 3.60513403 0 0 Z " fill="#7E5BD7" transform="translate(61,155)"/>
<path d="M0 0 C1.65 0 3.3 0 5 0 C3.02 2.31 1.04 4.62 -1 7 C-1 4.37886292 -0.68707555 2.49064888 0 0 Z " fill="#8258DE" transform="translate(459,338)"/>
<path d="M0 0 C0.33 0 0.66 0 1 0 C1 1.65 1 3.3 1 5 C-0.98 5.33 -2.96 5.66 -5 6 C-3.35830472 3.97945196 -1.69088222 1.97956942 0 0 Z " fill="#8459E1" transform="translate(458,332)"/>
<path d="M0 0 C0.66 1.32 1.32 2.64 2 4 C1.01 4.495 1.01 4.495 0 5 C0 5.66 0 6.32 0 7 C-0.99 7 -1.98 7 -3 7 C-2.38722388 4.03824877 -1.74627478 2.61941217 0 0 Z " fill="#8458E4" transform="translate(169,167)"/>
<path d="M0 0 C0 4.01474237 -1.66781767 5.81975137 -4 9 C-4.33 9 -4.66 9 -5 9 C-5 7.35 -5 5.7 -5 4 C-4.01 4 -3.02 4 -2 4 C-1.34 2.68 -0.68 1.36 0 0 Z " fill="#7D5AD5" transform="translate(186,156)"/>
<path d="M0 0 C0.99 0.66 1.98 1.32 3 2 C1.02 4.64 -0.96 7.28 -3 10 C-3 6.15276398 -1.70167183 3.40334366 0 0 Z " fill="#7E57DB" transform="translate(193,143)"/>
<path d="M0 0 C0.66 0.99 1.32 1.98 2 3 C0.35 4.32 -1.3 5.64 -3 7 C-3 3.48283697 -2.17554415 2.62878252 0 0 Z " fill="#8357DF" transform="translate(157,268)"/>
<path d="M0 0 C3.08089673 2.77280706 4.68775452 5.06326356 6 9 C3.5625 7.875 3.5625 7.875 1 6 C0.1875 2.8125 0.1875 2.8125 0 0 Z " fill="#7F5AD7" transform="translate(60,222)"/>
<path d="M0 0 C2.72426311 2.35277269 3.8141763 4.62496331 5 8 C3.68 8 2.36 8 1 8 C0.03601353 5.1080406 0 3.0005625 0 0 Z " fill="#865EDC" transform="translate(432,206)"/>
<path d="M0 0 C2.64 0 5.28 0 8 0 C8.33 1.32 8.66 2.64 9 4 C5.17902761 3.46930939 2.93828597 2.50298434 0 0 Z " fill="#7953E2" transform="translate(429,151)"/>
</svg>
